<?xml version="1.0" encoding="utf-8"?>
<!-- Generator: Adobe Illustrator 16.0.0, SVG Export Plug-In . SVG Version: 6.00 Build 0)  -->
<!DOCTYPE svg PUBLIC "-//W3C//DTD SVG 1.1//EN" "http://www.w3.org/Graphics/SVG/1.1/DTD/svg11.dtd">
<svg version="1.1" id="Layer_1" xmlns="http://www.w3.org/2000/svg" xmlns:xlink="http://www.w3.org/1999/xlink" x="0px" y="0px"
	 width="24px" height="24px" viewBox="0 0 200 200" enable-background="new 0 0 200 200" xml:space="preserve">
<rect fill="#FFFFFF" width="24" height="24"/>
<g>
	<path d="M43.15,131.677c-0.556,0-0.924-0.185-1.292-0.554L4.943,94.392c-0.739-0.738-0.739-1.847,0-2.584l36.915-38.207
		c0.736-0.738,1.845-0.738,2.583,0c0.738,0.739,0.738,1.846,0,2.584L8.819,93.101l35.622,35.438c0.738,0.739,0.738,1.847,0,2.585
		C44.073,131.492,43.703,131.677,43.15,131.677z"/>
</g>
<g>
	<path d="M156.848,131.677c-0.37,0-0.924-0.185-1.294-0.554c-0.736-0.738-0.736-1.846,0-2.585l35.625-36.916l-35.625-35.438
		c-0.736-0.738-0.736-1.845,0-2.584c0.74-0.738,1.847-0.738,2.585,0l36.916,36.73c0.738,0.739,0.738,1.846,0,2.585l-36.916,38.208
		C157.77,131.492,157.217,131.677,156.848,131.677z"/>
</g>
<text transform="matrix(1 0 0 1 51.0654 116.7266)" font-family="'MyriadPro-Regular'" font-size="83.014">QT</text>
</svg>
